<?xml version="1.0" standalone="no"?>
<!DOCTYPE svg PUBLIC "-//W3C//DTD SVG 20010904//EN"
 "http://www.w3.org/TR/2001/REC-SVG-20010904/DTD/svg10.dtd">
<svg version="1.0" xmlns="http://www.w3.org/2000/svg"
 width="420.000000pt" height="420.000000pt" viewBox="0 0 420.000000 420.000000"
 preserveAspectRatio="xMidYMid meet">
<metadata>
Created by potrace 1.11, written by Peter Selinger 2001-2013
</metadata>
<g transform="translate(0.000000,420.000000) scale(0.100000,-0.100000)"
fill="#000000" stroke="none">
<path d="M1446 4178 c-125 -16 -251 -61 -326 -117 -159 -118 -286 -376 -280
-571 0 -19 2 -36 4 -37 2 -2 -50 -56 -114 -121 -321 -320 -506 -693 -563
-1137 -17 -124 -15 -422 2 -520 6 -33 13 -76 16 -95 36 -212 152 -496 285
-699 99 -151 290 -362 408 -451 19 -14 39 -30 45 -35 7 -6 54 -39 106 -74 190
-126 451 -234 676 -280 155 -31 207 -36 395 -35 184 0 263 6 370 29 3 1 32 7
65 14 133 29 297 87 435 156 580 291 974 843 1066 1495 16 110 8 539 -10 569
-2 3 -7 22 -10 41 -11 67 -16 88 -41 174 -24 83 -26 118 -10 221 7 43 8 215 1
250 -3 17 -12 64 -20 105 -8 42 -18 98 -21 125 -3 28 -8 61 -10 75 -3 14 -7
41 -10 60 -14 90 -8 73 -143 385 -55 129 -68 146 -154 218 -84 71 -171 -26
-152 -169 11 -92 11 -243 -2 -311 -6 -35 -9 -65 -6 -68 3 -3 1 -5 -4 -5 -5 0
-25 15 -44 33 -48 44 -155 128 -210 163 -25 16 -47 32 -51 36 -3 4 -71 41
-152 82 -150 77 -331 142 -472 171 -89 19 -117 31 -161 73 -44 43 -194 123
-325 175 -163 65 -411 97 -583 75z"/>
</g>
</svg>
