<svg width="1920" height="147" viewBox="0 0 1920 147" fill="none" xmlns="http://www.w3.org/2000/svg">
<path fill-rule="evenodd" clip-rule="evenodd" d="M1920 26.8978L1856 33.5628C1792 40.2278 1664 53.5578 1536 43.5603C1408 33.5628 1280 0.23784 1152 0.237849C1024 0.237858 896 33.5629 768 53.5579C640 73.5529 512 80.2179 384 73.5529C256 66.8879 128 46.8929 64.0002 36.8954L0.000124864 26.8979L0.000137437 146.868L64.0003 146.868C128 146.868 256 146.868 384 146.868C512 146.868 640 146.868 768 146.868C896 146.868 1024 146.868 1152 146.868C1280 146.868 1408 146.868 1536 146.868C1664 146.868 1792 146.868 1856 146.868L1920 146.868L1920 26.8978Z" fill="white"/>
</svg>
