<svg width="387" height="211" viewBox="0 0 387 211" fill="none" xmlns="http://www.w3.org/2000/svg">
<path fill-rule="evenodd" clip-rule="evenodd" d="M304.488 42.6967C298.551 32.4134 302.074 19.2642 312.357 13.3271C322.641 7.39009 335.79 10.9134 341.727 21.1967C343.341 23.9918 344.256 27.0017 344.526 30.0214C345.902 30.0271 347.239 30.7439 347.977 32.022C349.081 33.9352 348.426 36.3815 346.513 37.4861L344.348 38.7361C343.63 39.1503 343.384 40.0677 343.799 40.7852L345.611 43.9245C346.397 45.2864 346.292 46.9186 345.476 48.1445L349.212 70.6068C349.743 73.797 346.033 75.9386 343.536 73.8839L318.766 53.5059L316.202 54.9861C314.289 56.0907 311.842 55.4352 310.738 53.522C310 52.2439 310.047 50.7279 310.731 49.5329C308.25 47.7896 306.102 45.4918 304.488 42.6967ZM338.683 47.9245C339.526 49.3848 341.151 50.1123 342.724 49.8838L346.253 71.099C346.328 71.5548 345.798 71.8607 345.442 71.5672L321.541 51.9039L327.46 48.4861C327.939 48.21 328.55 48.3738 328.826 48.8521C329.931 50.7653 332.377 51.4208 334.29 50.3162C336.204 49.2117 336.859 46.7653 335.754 44.8521L335.504 44.4191C335.366 44.18 335.448 43.8742 335.687 43.7361C335.927 43.598 336.232 43.68 336.37 43.9191L338.683 47.9245ZM325.96 45.888L319.066 49.8683L319.055 49.8595L319.032 49.8881L314.702 52.388C314.224 52.6642 313.612 52.5003 313.336 52.022C313.06 51.5437 313.224 50.9321 313.702 50.656C314.774 50.0371 314.762 48.5046 313.713 47.8877C311.05 46.322 308.743 44.0668 307.086 41.1967C301.977 32.3483 305.009 21.0339 313.857 15.9252C322.706 10.8166 334.02 13.8483 339.129 22.6967C340.786 25.5668 341.586 28.6921 341.61 31.7811C341.62 32.9981 342.941 33.7749 344.013 33.156C344.491 32.8798 345.103 33.0437 345.379 33.522C345.655 34.0003 345.491 34.6119 345.013 34.888L342.848 36.138C340.695 37.3807 339.958 40.1328 341.201 42.2852L343.013 45.4245C343.289 45.9028 343.125 46.5144 342.647 46.7905C342.169 47.0667 341.557 46.9028 341.281 46.4245L338.969 42.4191C338.002 40.7451 335.861 40.1715 334.187 41.138C332.513 42.1045 331.94 44.2451 332.906 45.9191L333.156 46.3521C333.433 46.8304 333.269 47.442 332.79 47.7182C332.312 47.9943 331.7 47.8304 331.424 47.3521C330.32 45.439 327.873 44.7835 325.96 45.888ZM316.678 19.0601C315.96 19.4743 315.714 20.3917 316.129 21.1091C316.543 21.8266 317.46 22.0724 318.178 21.6582C322.841 18.9658 328.804 20.5636 331.496 25.2269C331.911 25.9443 332.828 26.1902 333.545 25.7759C334.263 25.3617 334.509 24.4443 334.094 23.7269C330.574 17.6287 322.776 15.5393 316.678 19.0601Z" fill="#FBFBFB"/>
<path fill-rule="evenodd" clip-rule="evenodd" d="M114.838 34.3716C111.386 28.393 113.435 20.7481 119.413 17.2963C125.392 13.8445 133.037 15.893 136.489 21.8716L148.145 42.0609L149.461 44.3401C149.875 45.0575 149.629 45.9749 148.912 46.3891L145.783 48.1953C144.918 48.6952 144.738 49.7559 145.17 50.5037L146.227 52.3357C146.557 52.906 146.361 53.6352 145.791 53.9645C145.221 54.2937 144.492 54.0983 144.162 53.528L143.105 51.6961C142.673 50.9483 141.664 50.5734 140.799 51.0733L129.859 57.3891C129.142 57.8033 128.224 57.5575 127.81 56.8401L126.494 54.5609L114.838 34.3716ZM152.059 42.8401L150.743 40.5609L139.087 20.3716C134.807 12.9581 125.327 10.418 117.913 14.6982C110.5 18.9784 107.96 28.4581 112.24 35.8716L123.896 56.0609L125.212 58.3401L130.021 66.6697C131.816 69.7786 135.792 70.8438 138.9 69.0488L142.365 67.0488L145.49 72.4615C147.008 75.0921 150.372 75.9934 153.003 74.4746C155.633 72.9558 156.535 69.5921 155.016 66.9615L151.891 61.5488L154.489 60.0488C157.598 58.2539 158.663 54.2786 156.868 51.1697L152.059 42.8401ZM149.293 63.0488L144.963 65.5488L148.088 70.9615C148.778 72.1572 150.307 72.5669 151.503 71.8766C152.698 71.1862 153.108 69.6572 152.418 68.4615L149.293 63.0488ZM132.619 65.1697L129.932 60.5155C130.421 60.4245 130.904 60.2502 131.359 59.9872L141.16 54.3285L141.564 55.028C142.722 57.0332 145.286 57.7202 147.291 56.5625C149.296 55.4049 149.983 52.8409 148.825 50.8357L148.422 50.1362L150.412 48.9872C150.867 48.7242 151.259 48.3936 151.583 48.0155L154.27 52.6697C155.236 54.3437 154.663 56.4843 152.989 57.4508L137.4 66.4508C135.726 67.4173 133.586 66.8437 132.619 65.1697ZM121.69 20.2398C120.973 20.654 120.727 21.5714 121.141 22.2888C121.555 23.0063 122.473 23.2521 123.19 22.8379C125.821 21.3191 129.185 22.2204 130.703 24.851C131.117 25.5684 132.035 25.8143 132.752 25.4C133.47 24.9858 133.716 24.0684 133.301 23.351C130.954 19.2855 125.756 17.8926 121.69 20.2398Z" fill="#FBFBFB"/>
<path fill-rule="evenodd" clip-rule="evenodd" d="M16.074 13.662C16.2717 13.1438 16.6944 12.7157 17.1927 12.4788C19.1734 11.4474 21.5658 11.184 23.7079 11.8574C25.3623 12.3459 26.8521 13.3493 27.9476 14.6841C30.2808 14.0075 32.9433 14.4037 34.8907 15.8928C35.7138 16.4615 36.3856 17.236 36.8949 18.0926C39.1264 17.9159 41.4308 18.7187 43.0212 20.3039C43.1308 20.453 43.2602 20.5855 43.3893 20.7178C43.5836 20.9169 43.7775 21.1155 43.9032 21.3695C44.3102 21.9447 44.6362 22.5751 44.8529 23.2464C45.1154 24.1122 45.3065 25.0151 45.2231 25.9232C46.5017 26.1771 47.7494 26.6444 48.8287 27.3846C49.9012 28.0858 50.8148 29.0237 51.4987 30.1067C53.2911 29.4481 55.3506 30.1534 56.338 31.8635C57.4425 33.7767 56.787 36.2231 54.8739 37.3276L52.7088 38.5776C51.9914 38.9918 51.7456 39.9092 52.1598 40.6267L53.9723 43.766C54.7586 45.1279 54.653 46.7601 53.8366 47.986L57.573 70.4483C58.1036 73.6385 54.3942 75.7801 51.8968 73.7255L27.1268 53.3474L24.563 54.8276C22.6498 55.9322 20.2034 55.2767 19.0989 53.3635C18.1105 51.6516 18.5314 49.5129 20.0015 48.2904C19.6926 47.6856 19.447 47.0475 19.259 46.3964C18.7491 44.4369 18.9445 42.3326 19.6721 40.4572C19.586 40.3939 19.4968 40.334 19.4074 40.2742C19.1616 40.1094 18.9153 39.9443 18.7346 39.705C18.6545 39.6059 18.5554 39.5266 18.4566 39.4475C18.3367 39.3515 18.2171 39.2558 18.132 39.1253C18.0356 38.9845 17.9359 38.8456 17.8361 38.7067C17.5573 38.3183 17.2782 37.9297 17.0726 37.4969C16.5708 36.436 16.2917 35.2655 16.3163 34.0911C16.3943 32.8065 16.6743 31.51 17.333 30.3925C17.5372 29.9791 17.8211 29.6159 18.1043 29.2536L18.1043 29.2536C18.2001 29.131 18.2959 29.0085 18.3884 28.8842C17.4009 27.4004 16.9478 25.5594 17.1797 23.7904C17.2836 22.8684 17.555 21.9682 17.9743 21.1413C18.2713 20.5047 18.7048 19.9521 19.1361 19.4024C19.2286 19.2846 19.3209 19.1669 19.4118 19.0485C19.4615 18.9885 19.5138 18.9297 19.5663 18.8707C19.7481 18.6662 19.9319 18.4595 20.0177 18.1942C20.1437 17.7545 20.2153 17.2774 20.0725 16.831C19.8481 15.9653 18.9602 15.3484 18.0762 15.405C17.9681 15.4074 17.8588 15.4175 17.7491 15.4277C17.4548 15.455 17.1585 15.4825 16.8805 15.3603C16.2211 15.1191 15.8455 14.3259 16.074 13.662ZM22.3522 46.8664L49.0903 31.4292C48.593 30.6835 47.9381 30.0439 47.1697 29.5798C45.6907 28.6315 43.8404 28.3227 42.1255 28.6487C42.0287 28.6659 41.932 28.6895 41.8352 28.7131L41.8352 28.7131C41.5877 28.7735 41.3392 28.8342 41.0844 28.7896C40.5231 28.7108 40.0351 28.2511 39.9401 27.6883C39.8058 27.0519 40.192 26.3541 40.8109 26.1469C41.3189 25.9809 41.8511 25.9084 42.3799 25.8363L42.4812 25.8224C42.577 24.5392 42.0557 23.2326 41.1387 22.3331C40.1236 21.2365 38.587 20.7255 37.116 20.8344C36.9956 20.8401 36.8722 20.8517 36.7475 20.8635C36.2664 20.9087 35.7668 20.9557 35.3505 20.6744C35.0494 20.5008 34.8993 20.1937 34.752 19.8924C34.7105 19.8075 34.6692 19.7231 34.6249 19.6423C33.8713 18.2074 32.3242 17.291 30.7371 17.1275C29.8146 17.0572 28.8693 17.1905 28.0314 17.5918C27.5206 17.8529 26.8543 17.7987 26.4326 17.3917C26.2563 17.25 26.1636 17.0512 26.0706 16.8519C25.9943 16.6883 25.9178 16.5243 25.7949 16.3913C24.7981 15.1508 23.2708 14.3911 21.6987 14.239C22.5481 15.1986 22.9853 16.5041 22.9096 17.7799C22.8721 17.9382 22.8424 18.0988 22.8126 18.2595C22.7447 18.6264 22.6767 18.9936 22.5163 19.3333C22.2967 19.8885 21.9287 20.3675 21.5233 20.7982C20.787 21.6644 20.1199 22.6577 19.953 23.8085C19.6415 25.3062 20.1343 26.9381 21.2106 28.0258C21.6347 28.4589 21.7025 29.1665 21.4175 29.6906C21.2937 29.9351 21.0895 30.1089 20.8848 30.283C20.7505 30.3973 20.616 30.5117 20.504 30.6464C19.8418 31.4253 19.2969 32.347 19.1583 33.3768C18.9956 34.1402 19.0357 34.9441 19.2962 35.6822C19.5782 36.6658 20.2872 37.459 21.0651 38.0919C21.1731 37.9699 21.2777 37.8443 21.3824 37.7187C21.6712 37.372 21.9603 37.025 22.322 36.7517C23.0154 36.162 23.7468 35.6033 24.5826 35.2276C24.6783 35.1866 24.7741 35.1406 24.8707 35.0942C25.2345 34.9197 25.6087 34.7402 26.02 34.8028C26.727 34.878 27.2884 35.5745 27.2128 36.2823C27.1787 36.8371 26.767 37.3118 26.2499 37.4887C25.1226 37.928 24.1393 38.6914 23.3698 39.619C22.1372 40.9885 21.6156 42.8972 21.7383 44.7175C21.813 45.4612 22.026 46.1912 22.3522 46.8664ZM47.0441 47.766C47.8872 49.2263 49.512 49.9539 51.0847 49.7253L54.6136 70.9406C54.6894 71.3963 54.1595 71.7023 53.8027 71.4087L29.9016 51.7454L35.8213 48.3276C36.2996 48.0515 36.9112 48.2154 37.1873 48.6937C38.2919 50.6068 40.7383 51.2623 42.6514 50.1578C44.5646 49.0532 45.2201 46.6068 44.1155 44.6937L43.8655 44.2606C43.7275 44.0215 43.8094 43.7157 44.0485 43.5776C44.2877 43.4396 44.5935 43.5215 44.7316 43.7606L47.0441 47.766ZM34.3213 45.7296L27.4273 49.7098L27.4166 49.701L27.393 49.7296L23.063 52.2296C22.5847 52.5057 21.9731 52.3418 21.697 51.8635C21.4208 51.3852 21.5847 50.7736 22.063 50.4975L52.3739 32.9975C52.8522 32.7214 53.4638 32.8852 53.7399 33.3635C54.016 33.8418 53.8522 34.4534 53.3739 34.7296L51.2088 35.9796C49.0565 37.2222 48.319 39.9743 49.5617 42.1267L51.3742 45.266C51.6503 45.7443 51.4865 46.3559 51.0082 46.632C50.5299 46.9082 49.9183 46.7443 49.6421 46.266L47.3296 42.2606C46.3631 40.5866 44.2226 40.0131 42.5485 40.9796C40.8745 41.9461 40.301 44.0866 41.2675 45.7606L41.5175 46.1937C41.7936 46.6719 41.6297 47.2835 41.1514 47.5597C40.6731 47.8358 40.0616 47.6719 39.7854 47.1937C38.6808 45.2805 36.2345 44.625 34.3213 45.7296ZM28.2755 21.9704C29.6567 21.1158 31.159 20.4526 32.7188 20.0005C33.3819 19.8007 34.1469 20.203 34.3673 20.8605C34.6398 21.5609 34.2193 22.4277 33.494 22.6296C32.1958 23.0122 30.9487 23.5619 29.7869 24.2538C29.2178 24.6056 28.41 24.4417 28.0139 23.9036C27.5464 23.3295 27.6716 22.3952 28.2755 21.9704ZM34.7045 28.6553C34.4348 28.8092 34.164 28.9638 33.949 29.1897C33.5638 29.6225 33.4972 30.3093 33.8147 30.8007C34.1741 31.4542 35.1059 31.6703 35.7188 31.2519C36.6184 30.6723 37.5894 30.2163 38.5766 29.8103C39.2513 29.5245 39.5595 28.6421 39.2305 27.9902C38.958 27.3701 38.1842 27.0385 37.5503 27.2744C36.6607 27.6082 35.806 28.0318 34.9776 28.4953C34.8882 28.5504 34.7964 28.6028 34.7045 28.6553Z" fill="#FBFBFB"/>
<path fill-rule="evenodd" clip-rule="evenodd" d="M210.195 16.1718C209.716 16.3997 209.309 16.8114 209.119 17.3098C208.899 17.9484 209.26 18.7113 209.894 18.9433C210.162 19.0609 210.447 19.0344 210.73 19.0082C210.835 18.9984 210.941 18.9886 211.045 18.9863C211.895 18.9318 212.749 19.5252 212.965 20.3578C213.102 20.7872 213.033 21.2461 212.912 21.669C212.829 21.9243 212.653 22.1231 212.478 22.3197C212.427 22.3765 212.377 22.4331 212.329 22.4908C212.242 22.6046 212.153 22.7178 212.064 22.8312L212.064 22.8312C211.649 23.3599 211.232 23.8914 210.947 24.5036C210.543 25.299 210.282 26.1649 210.182 27.0516C209.959 28.7531 210.395 30.5238 211.345 31.951C211.256 32.0705 211.164 32.1883 211.072 32.3062L211.072 32.3062L211.072 32.3063L211.072 32.3063L211.072 32.3063C210.799 32.6548 210.526 33.0041 210.33 33.4018C209.696 34.4766 209.427 35.7237 209.352 36.9592C209.328 38.0888 209.597 39.2146 210.079 40.235C210.277 40.6513 210.545 41.0251 210.814 41.3986L210.814 41.3987C210.91 41.5323 211.006 41.6658 211.098 41.8013C211.18 41.9268 211.295 42.0189 211.41 42.1111C211.506 42.1872 211.601 42.2635 211.678 42.3588C211.852 42.589 212.089 42.7478 212.325 42.9063C212.411 42.9639 212.497 43.0214 212.58 43.0823C211.88 44.8861 211.692 46.9102 212.182 48.7948C212.49 49.8588 212.956 50.8866 213.611 51.7829C213.24 53.0482 213.368 54.4569 214.079 55.6888C215.094 57.4467 217.015 58.3551 218.911 58.1648L236.679 79.4111C237.302 80.1566 238.371 80.3461 239.213 79.8602L255.354 70.5412C256.195 70.0553 256.566 69.0347 256.232 68.122L246.716 42.1118C247.829 40.5646 248.003 38.4467 246.988 36.6888C246.274 35.4518 245.111 34.6354 243.823 34.3266C243.158 32.7785 242.034 31.4308 240.623 30.5087C239.585 29.7967 238.385 29.3472 237.155 29.103C237.236 28.2297 237.052 27.3612 236.799 26.5284C236.591 25.8827 236.277 25.2764 235.886 24.7232C235.765 24.4789 235.578 24.2878 235.392 24.0964C235.267 23.9691 235.143 23.8417 235.037 23.6983C233.508 22.1735 231.291 21.4014 229.145 21.5714C228.655 20.7474 228.009 20.0025 227.217 19.4555C225.344 18.0233 222.783 17.6422 220.539 18.2929C219.486 17.0091 218.053 16.044 216.461 15.5742C214.401 14.9265 212.1 15.1798 210.195 16.1718ZM240.937 34.4935C240.451 33.7358 239.799 33.086 239.028 32.6201C237.605 31.708 235.825 31.411 234.176 31.7245C234.083 31.7411 233.99 31.7638 233.897 31.7865C233.659 31.8446 233.42 31.9029 233.175 31.8601C232.635 31.7842 232.165 31.3421 232.074 30.8008C231.945 30.1887 232.316 29.5175 232.912 29.3183C233.4 29.1585 233.912 29.0888 234.421 29.0194L234.518 29.0061C234.61 27.7719 234.109 26.5151 233.227 25.65C232.251 24.5952 230.772 24.1037 229.358 24.2085C229.242 24.214 229.123 24.2252 229.003 24.2364C228.54 24.28 228.06 24.3252 227.66 24.0546C227.37 23.8876 227.226 23.5923 227.084 23.3024C227.044 23.2208 227.004 23.1396 226.962 23.0619C226.237 21.6818 224.749 20.8003 223.222 20.6431C222.335 20.5755 221.426 20.7037 220.62 21.0897C220.129 21.3407 219.488 21.2886 219.082 20.8972C218.912 20.7609 218.823 20.5697 218.734 20.378L218.734 20.378C218.66 20.2206 218.587 20.0629 218.469 19.9349C217.51 18.7418 216.041 18.0111 214.529 17.8648C215.346 18.7878 215.766 20.0435 215.694 21.2706C215.657 21.4228 215.629 21.5773 215.6 21.7318C215.535 22.0847 215.469 22.4379 215.315 22.7647C215.104 23.2987 214.75 23.7594 214.36 24.1737C213.652 25.0068 213.01 25.9622 212.85 27.069C212.55 28.5096 213.024 30.0792 214.059 31.1254C214.467 31.542 214.532 32.2225 214.258 32.7267C214.139 32.9618 213.943 33.129 213.746 33.2964L213.746 33.2965C213.617 33.4064 213.487 33.5164 213.38 33.6459C212.743 34.3951 212.219 35.2817 212.085 36.2721C211.929 37.0064 211.967 37.7797 212.218 38.4895C212.489 39.4356 213.171 40.1985 213.919 40.8073C214.023 40.69 214.124 40.5694 214.224 40.4487L214.224 40.4486L214.224 40.4485L214.224 40.4484L214.225 40.4483L214.225 40.4483C214.502 40.1149 214.78 39.7811 215.128 39.5182C215.795 38.9511 216.499 38.4137 217.303 38.0523C217.395 38.0129 217.487 37.9686 217.58 37.9241C217.93 37.7562 218.29 37.5835 218.685 37.6437C219.365 37.716 219.905 38.3859 219.832 39.0668C219.8 39.6004 219.404 40.0569 218.906 40.2271C217.822 40.6496 216.876 41.3839 216.136 42.2761C214.951 43.5933 214.449 45.4292 214.567 47.18C214.643 47.9324 214.865 48.6703 215.207 49.3475C215.423 49.1678 215.657 49.004 215.909 48.8587L240.158 34.8587C240.411 34.7126 240.671 34.5911 240.937 34.4935ZM244.232 44.0536L221.835 56.9844L238.441 76.8418L253.126 68.3634L244.232 44.0536ZM243.658 40.9209C244.614 40.3686 244.942 39.1454 244.39 38.1888C243.837 37.2322 242.614 36.9045 241.658 37.4568L217.409 51.4568C216.452 52.0091 216.125 53.2322 216.677 54.1888C217.229 55.1454 218.452 55.4732 219.409 54.9209L243.658 40.9209ZM220.855 25.3011C222.183 24.4791 223.628 23.8412 225.128 23.4064C225.766 23.2141 226.502 23.6011 226.714 24.2335C226.976 24.9072 226.572 25.7409 225.874 25.9351C224.625 26.3031 223.426 26.8318 222.308 27.4973C221.761 27.8357 220.984 27.678 220.603 27.1604C220.153 26.6083 220.274 25.7097 220.855 25.3011ZM227.038 31.7308C226.779 31.8788 226.518 32.0275 226.312 32.2448C225.941 32.6611 225.877 33.3217 226.182 33.7944C226.528 34.4229 227.424 34.6308 228.014 34.2283C228.879 33.6708 229.813 33.2323 230.763 32.8418C231.411 32.5668 231.708 31.7182 231.391 31.0911C231.129 30.4947 230.385 30.1757 229.775 30.4026C228.92 30.7237 228.098 31.1311 227.301 31.577C227.215 31.63 227.127 31.6803 227.038 31.7308Z" fill="#FBFBFB"/>
<path fill-rule="evenodd" clip-rule="evenodd" d="M11.6652 147.29C5.7281 137.007 9.25142 123.858 19.5347 117.921C29.818 111.984 42.9672 115.507 48.9043 125.79C50.518 128.586 51.4335 131.595 51.7031 134.615C53.0797 134.621 54.4164 135.338 55.1543 136.616C56.2588 138.529 55.6033 140.975 53.6902 142.08L51.5251 143.33C50.8076 143.744 50.5618 144.661 50.976 145.379L52.7885 148.518C53.5749 149.88 53.4692 151.512 52.6529 152.738L56.3892 175.201C56.9199 178.391 53.2105 180.532 50.713 178.478L25.9431 158.1L23.3793 159.58C21.4661 160.684 19.0197 160.029 17.9152 158.116C17.1773 156.838 17.2248 155.322 17.9081 154.127C15.4278 152.383 13.2789 150.086 11.6652 147.29ZM45.8603 152.518C46.7034 153.979 48.3283 154.706 49.901 154.478L53.4299 175.693C53.5057 176.149 52.9758 176.454 52.619 176.161L28.7179 156.498L34.6376 153.08C35.1159 152.804 35.7275 152.968 36.0036 153.446C37.1082 155.359 39.5545 156.015 41.4677 154.91C43.3809 153.805 44.0364 151.359 42.9318 149.446L42.6818 149.013C42.5438 148.774 42.6257 148.468 42.8648 148.33C43.104 148.192 43.4098 148.274 43.5478 148.513L45.8603 152.518ZM33.1376 150.482L26.2436 154.462L26.2329 154.453L26.2093 154.482L21.8793 156.982C21.401 157.258 20.7894 157.094 20.5132 156.616C20.2371 156.137 20.401 155.526 20.8793 155.25C21.9513 154.631 21.939 153.098 20.8899 152.481C18.2271 150.916 15.9203 148.661 14.2632 145.79C9.1546 136.942 12.1863 125.628 21.0347 120.519C29.8831 115.41 41.1975 118.442 46.3062 127.29C47.9633 130.161 48.7629 133.286 48.7875 136.375C48.7971 137.592 50.1182 138.369 51.1902 137.75C51.6684 137.474 52.28 137.637 52.5562 138.116C52.8323 138.594 52.6684 139.206 52.1902 139.482L50.0251 140.732C47.8728 141.974 47.1353 144.727 48.378 146.879L50.1905 150.018C50.4666 150.497 50.3027 151.108 49.8244 151.384C49.3462 151.66 48.7346 151.497 48.4584 151.018L46.1459 147.013C45.1794 145.339 43.0389 144.765 41.3648 145.732C39.6908 146.698 39.1172 148.839 40.0837 150.513L40.3337 150.946C40.6099 151.424 40.446 152.036 39.9677 152.312C39.4894 152.588 38.8778 152.424 38.6017 151.946C37.4971 150.033 35.0508 149.377 33.1376 150.482ZM23.855 123.654C23.1375 124.068 22.8917 124.985 23.3059 125.703C23.7202 126.42 24.6375 126.666 25.355 126.252C30.0183 123.56 35.9813 125.157 38.6737 129.821C39.0879 130.538 40.0053 130.784 40.7228 130.37C41.4402 129.955 41.686 129.038 41.2718 128.321C37.751 122.222 29.9532 120.133 23.855 123.654Z" fill="#FBFBFB"/>
<path fill-rule="evenodd" clip-rule="evenodd" d="M211.399 138.965C207.947 132.987 209.996 125.342 215.974 121.89C221.953 118.438 229.598 120.487 233.05 126.465L244.706 146.655L246.022 148.934C246.436 149.651 246.19 150.569 245.473 150.983L242.344 152.789C241.479 153.289 241.299 154.35 241.731 155.097L242.788 156.929C243.118 157.5 242.922 158.229 242.352 158.558C241.782 158.887 241.053 158.692 240.723 158.122L239.666 156.29C239.234 155.542 238.225 155.167 237.36 155.667L226.42 161.983C225.703 162.397 224.785 162.151 224.371 161.434L223.055 159.155L211.399 138.965ZM248.62 147.434L247.304 145.155L235.648 124.965C231.368 117.552 221.888 115.012 214.474 119.292C207.061 123.572 204.521 133.052 208.801 140.465L220.457 160.655L221.773 162.934L226.582 171.263C228.377 174.372 232.353 175.438 235.461 173.643L238.926 171.643L242.051 177.055C243.569 179.686 246.933 180.587 249.564 179.068C252.194 177.55 253.096 174.186 251.577 171.555L248.452 166.143L251.05 164.643C254.159 162.848 255.224 158.872 253.429 155.763L248.62 147.434ZM245.854 167.643L241.524 170.143L244.649 175.555C245.339 176.751 246.868 177.161 248.064 176.47C249.259 175.78 249.669 174.251 248.979 173.055L245.854 167.643ZM229.18 169.763L226.493 165.109C226.982 165.018 227.465 164.844 227.92 164.581L237.721 158.922L238.125 159.622C239.283 161.627 241.847 162.314 243.852 161.156C245.857 159.999 246.544 157.435 245.387 155.429L244.983 154.73L246.973 153.581C247.428 153.318 247.82 152.987 248.144 152.609L250.831 157.263C251.797 158.937 251.224 161.078 249.55 162.045L233.961 171.045C232.287 172.011 230.147 171.437 229.18 169.763ZM218.251 124.834C217.534 125.248 217.288 126.165 217.702 126.883C218.116 127.6 219.034 127.846 219.751 127.432C222.382 125.913 225.746 126.814 227.264 129.445C227.679 130.162 228.596 130.408 229.313 129.994C230.031 129.58 230.277 128.662 229.862 127.945C227.515 123.879 222.317 122.486 218.251 124.834Z" fill="#FBFBFB"/>
<path fill-rule="evenodd" clip-rule="evenodd" d="M307.713 118.256C307.911 117.738 308.333 117.309 308.832 117.073C310.812 116.041 313.205 115.778 315.347 116.451C317.001 116.94 318.491 117.943 319.587 119.278C321.92 118.601 324.582 118.997 326.53 120.487C327.353 121.055 328.025 121.83 328.534 122.686C330.765 122.51 333.07 123.312 334.66 124.898C334.77 125.047 334.899 125.179 335.028 125.312C335.223 125.511 335.416 125.709 335.542 125.963C335.949 126.538 336.275 127.169 336.492 127.84C336.754 128.706 336.945 129.609 336.862 130.517C338.141 130.771 339.388 131.238 340.468 131.978C341.54 132.68 342.454 133.617 343.138 134.7C344.93 134.042 346.99 134.747 347.977 136.457C349.081 138.37 348.426 140.817 346.513 141.921L344.348 143.171C343.63 143.586 343.384 144.503 343.799 145.22L345.611 148.36C346.397 149.722 346.292 151.354 345.476 152.58L349.212 175.042C349.743 178.232 346.033 180.374 343.536 178.319L318.766 157.941L316.202 159.421C314.289 160.526 311.842 159.87 310.738 157.957C309.749 156.245 310.17 154.107 311.64 152.884C311.331 152.279 311.086 151.641 310.898 150.99C310.388 149.031 310.583 146.926 311.311 145.051C311.225 144.988 311.136 144.928 311.046 144.868C310.801 144.703 310.554 144.538 310.373 144.299C310.293 144.2 310.194 144.12 310.095 144.041C309.976 143.945 309.856 143.85 309.771 143.719C309.675 143.578 309.575 143.439 309.475 143.3C309.196 142.912 308.917 142.523 308.711 142.091C308.21 141.03 307.931 139.859 307.955 138.685C308.033 137.4 308.313 136.104 308.972 134.986C309.176 134.573 309.46 134.21 309.743 133.847L309.743 133.847C309.839 133.725 309.935 133.602 310.027 133.478C309.04 131.994 308.587 130.153 308.819 128.384C308.922 127.462 309.194 126.562 309.613 125.735C309.91 125.098 310.344 124.546 310.775 123.996C310.867 123.878 310.96 123.761 311.051 123.642C311.1 123.582 311.153 123.523 311.205 123.464C311.387 123.26 311.571 123.053 311.657 122.788C311.783 122.348 311.854 121.871 311.711 121.425C311.487 120.559 310.599 119.942 309.715 119.999C309.607 120.001 309.498 120.011 309.388 120.021C309.094 120.049 308.797 120.076 308.519 119.954C307.86 119.713 307.484 118.92 307.713 118.256ZM313.991 151.46L340.729 136.023C340.232 135.277 339.577 134.638 338.809 134.174C337.33 133.225 335.479 132.916 333.764 133.242C333.668 133.26 333.571 133.283 333.474 133.307L333.474 133.307C333.227 133.367 332.978 133.428 332.723 133.383C332.162 133.305 331.674 132.845 331.579 132.282C331.445 131.646 331.831 130.948 332.45 130.741C332.958 130.575 333.49 130.502 334.019 130.43L334.12 130.416C334.216 129.133 333.695 127.826 332.778 126.927C331.763 125.83 330.226 125.319 328.755 125.428C328.634 125.434 328.511 125.445 328.386 125.457C327.905 125.502 327.406 125.549 326.989 125.268C326.688 125.095 326.538 124.787 326.391 124.486C326.349 124.401 326.308 124.317 326.264 124.236C325.51 122.801 323.963 121.885 322.376 121.721C321.454 121.651 320.508 121.784 319.67 122.186C319.16 122.447 318.493 122.392 318.071 121.985C317.895 121.844 317.803 121.645 317.71 121.446C317.633 121.282 317.557 121.118 317.434 120.985C316.437 119.745 314.91 118.985 313.338 118.833C314.187 119.792 314.624 121.098 314.549 122.374C314.511 122.532 314.481 122.693 314.452 122.853C314.384 123.22 314.316 123.587 314.155 123.927C313.936 124.482 313.568 124.961 313.162 125.392C312.426 126.258 311.759 127.251 311.592 128.402C311.28 129.9 311.773 131.532 312.85 132.62C313.274 133.053 313.341 133.76 313.056 134.284C312.933 134.529 312.728 134.703 312.524 134.877C312.389 134.991 312.255 135.105 312.143 135.24C311.481 136.019 310.936 136.941 310.797 137.971C310.635 138.734 310.675 139.538 310.935 140.276C311.217 141.26 311.926 142.053 312.704 142.686C312.812 142.564 312.917 142.438 313.021 142.312C313.31 141.966 313.599 141.619 313.961 141.345C314.654 140.756 315.386 140.197 316.222 139.821C316.317 139.78 316.413 139.734 316.51 139.688C316.873 139.513 317.248 139.334 317.659 139.397C318.366 139.472 318.927 140.168 318.852 140.876C318.818 141.431 318.406 141.906 317.889 142.082C316.762 142.522 315.778 143.285 315.009 144.213C313.776 145.582 313.255 147.491 313.377 149.311C313.452 150.055 313.665 150.785 313.991 151.46ZM338.683 152.36C339.526 153.82 341.151 154.548 342.724 154.319L346.253 175.534C346.328 175.99 345.798 176.296 345.442 176.002L321.541 156.339L327.46 152.921C327.939 152.645 328.55 152.809 328.826 153.287C329.931 155.201 332.377 155.856 334.29 154.752C336.204 153.647 336.859 151.201 335.754 149.287L335.504 148.854C335.366 148.615 335.448 148.309 335.687 148.171C335.927 148.033 336.232 148.115 336.37 148.354L338.683 152.36ZM325.96 150.323L319.066 154.304L319.055 154.295L319.032 154.323L314.702 156.823C314.224 157.099 313.612 156.936 313.336 156.457C313.06 155.979 313.224 155.367 313.702 155.091L344.013 137.591C344.491 137.315 345.103 137.479 345.379 137.957C345.655 138.436 345.491 139.047 345.013 139.323L342.848 140.573C340.695 141.816 339.958 144.568 341.201 146.72L343.013 149.86C343.289 150.338 343.125 150.95 342.647 151.226C342.169 151.502 341.557 151.338 341.281 150.86L338.969 146.854C338.002 145.18 335.861 144.607 334.187 145.573C332.513 146.54 331.94 148.68 332.906 150.354L333.156 150.787C333.433 151.266 333.269 151.877 332.79 152.153C332.312 152.43 331.7 152.266 331.424 151.787C330.32 149.874 327.873 149.219 325.96 150.323ZM319.914 126.564C321.296 125.71 322.798 125.046 324.358 124.594C325.021 124.394 325.786 124.797 326.006 125.454C326.279 126.155 325.858 127.021 325.133 127.223C323.835 127.606 322.588 128.156 321.426 128.848C320.857 129.199 320.049 129.035 319.653 128.497C319.185 127.923 319.31 126.989 319.914 126.564ZM326.343 133.249C326.074 133.403 325.803 133.558 325.588 133.783C325.203 134.216 325.136 134.903 325.454 135.394C325.813 136.048 326.745 136.264 327.358 135.846C328.257 135.266 329.228 134.81 330.216 134.404C330.89 134.118 331.198 133.236 330.869 132.584C330.597 131.964 329.823 131.632 329.189 131.868C328.3 132.202 327.445 132.626 326.616 133.089C326.527 133.144 326.435 133.197 326.343 133.249Z" fill="#FBFBFB"/>
<path fill-rule="evenodd" clip-rule="evenodd" d="M117.508 120.766C117.029 120.993 116.622 121.405 116.432 121.904C116.212 122.542 116.574 123.305 117.208 123.537C117.475 123.655 117.76 123.628 118.043 123.602C118.149 123.592 118.254 123.582 118.358 123.58C119.208 123.526 120.062 124.119 120.278 124.952C120.415 125.381 120.346 125.84 120.225 126.263C120.143 126.518 119.966 126.717 119.791 126.913C119.741 126.97 119.69 127.027 119.642 127.085C119.555 127.198 119.466 127.312 119.377 127.425L119.377 127.425C118.962 127.954 118.545 128.485 118.26 129.097C117.857 129.893 117.595 130.759 117.496 131.645C117.272 133.347 117.708 135.118 118.658 136.545C118.569 136.664 118.477 136.782 118.385 136.9L118.385 136.9L118.385 136.9L118.385 136.9L118.385 136.9C118.112 137.249 117.839 137.598 117.643 137.996C117.009 139.07 116.74 140.317 116.665 141.553C116.641 142.683 116.91 143.808 117.392 144.829C117.59 145.245 117.859 145.619 118.127 145.992L118.127 145.992C118.223 146.126 118.319 146.26 118.411 146.395C118.493 146.521 118.608 146.613 118.724 146.705C118.819 146.781 118.914 146.857 118.991 146.953C119.165 147.183 119.402 147.342 119.638 147.5C119.724 147.558 119.81 147.615 119.893 147.676C119.193 149.48 119.005 151.504 119.495 153.389C119.803 154.453 120.27 155.48 120.924 156.377C120.553 157.642 120.681 159.051 121.392 160.283C122.407 162.04 124.328 162.949 126.225 162.759L143.992 184.005C144.615 184.75 145.684 184.94 146.526 184.454L162.667 175.135C163.509 174.649 163.879 173.628 163.545 172.716L154.029 146.706C155.142 145.158 155.316 143.04 154.301 141.283C153.587 140.046 152.424 139.229 151.137 138.92C150.472 137.372 149.347 136.025 147.937 135.102C146.898 134.39 145.698 133.941 144.469 133.697C144.549 132.823 144.365 131.955 144.112 131.122C143.904 130.476 143.591 129.87 143.199 129.317C143.078 129.073 142.892 128.882 142.705 128.69C142.581 128.563 142.456 128.435 142.351 128.292C140.821 126.767 138.605 125.995 136.458 126.165C135.968 125.341 135.322 124.596 134.531 124.049C132.657 122.617 130.097 122.236 127.852 122.887C126.799 121.603 125.366 120.638 123.775 120.168C121.714 119.52 119.413 119.774 117.508 120.766ZM148.25 139.087C147.765 138.33 147.112 137.68 146.341 137.214C144.918 136.302 143.139 136.005 141.489 136.318C141.396 136.335 141.303 136.358 141.21 136.38C140.972 136.438 140.733 136.497 140.488 136.454C139.948 136.378 139.479 135.936 139.387 135.395C139.258 134.782 139.629 134.111 140.225 133.912C140.713 133.752 141.225 133.683 141.734 133.613L141.831 133.6C141.923 132.366 141.422 131.109 140.54 130.244C139.564 129.189 138.086 128.697 136.671 128.802C136.555 128.808 136.436 128.819 136.316 128.83C135.854 128.874 135.373 128.919 134.973 128.648C134.683 128.481 134.539 128.186 134.397 127.896C134.357 127.815 134.317 127.733 134.275 127.656C133.55 126.276 132.062 125.394 130.535 125.237C129.648 125.169 128.739 125.297 127.933 125.683C127.442 125.934 126.801 125.882 126.395 125.491C126.226 125.355 126.137 125.163 126.047 124.972L126.047 124.972C125.974 124.814 125.9 124.657 125.782 124.529C124.823 123.336 123.354 122.605 121.842 122.459C122.659 123.382 123.08 124.637 123.007 125.864C122.971 126.017 122.942 126.171 122.913 126.326C122.848 126.678 122.783 127.032 122.628 127.358C122.417 127.892 122.063 128.353 121.673 128.767C120.965 129.601 120.324 130.556 120.163 131.663C119.863 133.103 120.337 134.673 121.373 135.719C121.781 136.136 121.846 136.816 121.572 137.32C121.453 137.556 121.256 137.723 121.059 137.89L121.059 137.89C120.93 138 120.801 138.11 120.693 138.24C120.056 138.989 119.532 139.875 119.399 140.866C119.242 141.6 119.281 142.373 119.531 143.083C119.802 144.029 120.484 144.792 121.233 145.401C121.336 145.284 121.437 145.163 121.537 145.042L121.538 145.042L121.538 145.042L121.538 145.042L121.538 145.042L121.538 145.042C121.816 144.709 122.094 144.375 122.442 144.112C123.109 143.545 123.812 143.007 124.616 142.646C124.708 142.607 124.8 142.562 124.893 142.518C125.243 142.35 125.603 142.177 125.998 142.237C126.678 142.31 127.218 142.98 127.146 143.661C127.113 144.194 126.717 144.651 126.22 144.821C125.135 145.243 124.189 145.978 123.449 146.87C122.264 148.187 121.762 150.023 121.88 151.774C121.956 152.526 122.179 153.264 122.52 153.941C122.736 153.762 122.971 153.598 123.222 153.452L147.471 139.452C147.724 139.306 147.985 139.185 148.25 139.087ZM151.545 148.647L129.148 161.578L145.754 181.436L160.439 172.957L151.545 148.647ZM150.971 145.515C151.928 144.962 152.255 143.739 151.703 142.783C151.151 141.826 149.928 141.498 148.971 142.051L124.722 156.051C123.766 156.603 123.438 157.826 123.99 158.783C124.542 159.739 125.766 160.067 126.722 159.515L150.971 145.515ZM128.168 129.895C129.496 129.073 130.941 128.435 132.442 128C133.079 127.808 133.815 128.195 134.027 128.827C134.289 129.501 133.885 130.335 133.187 130.529C131.938 130.897 130.739 131.426 129.622 132.091C129.074 132.429 128.297 132.272 127.916 131.754C127.467 131.202 127.587 130.303 128.168 129.895ZM134.351 136.325C134.092 136.473 133.832 136.621 133.625 136.839C133.254 137.255 133.19 137.915 133.496 138.388C133.841 139.017 134.737 139.225 135.327 138.822C136.192 138.265 137.126 137.826 138.076 137.436C138.725 137.161 139.021 136.312 138.705 135.685C138.443 135.088 137.698 134.769 137.089 134.996C136.233 135.317 135.411 135.725 134.614 136.171C134.528 136.224 134.44 136.274 134.351 136.325Z" fill="#FBFBFB"/>
</svg>
