<svg width="320" height="74" viewBox="0 0 320 74" fill="none" xmlns="http://www.w3.org/2000/svg">
<path fill-rule="evenodd" clip-rule="evenodd" d="M0 45.45L6.66667 51.51C13.3333 57.57 26.6667 69.69 40 72.72C53.3333 75.75 66.6667 69.69 80 62.115C93.3333 54.54 106.667 45.45 120 43.935C133.333 42.42 146.667 48.48 160 43.935C173.333 39.39 186.667 24.24 200 16.665C213.333 9.09002 226.667 9.09002 240 18.18C253.333 27.27 266.667 45.45 280 53.025C293.333 60.6 306.667 57.57 313.333 56.055L320 54.54V1.52588e-05H313.333C306.667 1.52588e-05 293.333 1.52588e-05 280 1.52588e-05C266.667 1.52588e-05 253.333 1.52588e-05 240 1.52588e-05C226.667 1.52588e-05 213.333 1.52588e-05 200 1.52588e-05C186.667 1.52588e-05 173.333 1.52588e-05 160 1.52588e-05C146.667 1.52588e-05 133.333 1.52588e-05 120 1.52588e-05C106.667 1.52588e-05 93.3333 1.52588e-05 80 1.52588e-05C66.6667 1.52588e-05 53.3333 1.52588e-05 40 1.52588e-05C26.6667 1.52588e-05 13.3333 1.52588e-05 6.66667 1.52588e-05H0V45.45Z" fill="white"/>
</svg>
