<svg width="1920" height="276" viewBox="0 0 1920 276" fill="none" xmlns="http://www.w3.org/2000/svg">
<path fill-rule="evenodd" clip-rule="evenodd" d="M1920 225.818L1856.02 213.273C1792.04 200.727 1664.08 175.636 1536.12 194.455C1408.16 213.273 1280.2 276 1152.24 276C1024.28 276 896.323 213.273 768.364 175.636C640.404 138 512.444 125.454 384.485 138C256.525 150.545 128.566 188.182 64.5861 207L0.606206 225.818L0.606225 -0.000167799L64.5861 -0.000162205C128.566 -0.000156612 256.525 -0.000145426 384.485 -0.000134239C512.444 -0.000123052 640.404 -0.000111866 768.364 -0.000100679C896.323 -8.94926e-05 1024.28 -7.83061e-05 1152.24 -6.71195e-05C1280.2 -5.59329e-05 1408.16 -4.47463e-05 1536.12 -3.35597e-05C1664.08 -2.23732e-05 1792.04 -1.11866e-05 1856.02 -5.59329e-06L1920 0L1920 225.818Z" fill="white"/>
</svg>
