<svg width="21" height="12" viewBox="0 0 21 12" fill="none" xmlns="http://www.w3.org/2000/svg">
<path d="M9.8052 11.5299C10.3866 11.6224 10.9781 11.5949 11.5668 11.5949H11.9242C11.9242 11.5949 11.9242 11.5949 11.9242 11.5949C11.9243 11.5949 11.9647 11.5949 12.0246 11.5868C12.3639 11.5411 12.6221 11.2176 12.6221 10.8752C12.6221 10.8752 12.6221 10.8752 12.6221 10.8752C12.6221 10.875 12.6221 9.27592 13.3199 9.03605C14.0953 8.79615 15.0257 10.5554 16.0337 11.1951C16.8258 11.6852 17.8195 11.5949 18.751 11.5949H19.743C19.9581 11.5949 19.9657 11.6141 20.1784 11.582C21.1608 11.4337 20.6009 9.94343 19.9238 9.21633C19.6484 8.92061 19.2906 8.56793 18.8251 8.15644C17.1193 6.63712 17.3519 6.87701 19.3679 4.23819C20.6085 2.6389 21.0737 1.67933 20.9186 1.19955C20.6311 0.458242 19.435 0.879688 18.6399 0.879688H16.8091C16.8091 0.879688 16.8091 0.879688 16.8091 0.879688C16.809 0.879688 16.5765 0.879705 16.4214 0.959652C16.182 1.08309 16.1436 1.40595 16.0428 1.65572C15.8584 2.1128 15.515 2.90848 15.1033 3.59847C14.8966 3.94954 14.709 4.24752 14.5386 4.50013C13.7481 5.67244 12.6221 5.25232 12.6221 3.83837C12.6221 1.67933 12.9322 0.799724 12.0018 0.559831C11.6916 0.479866 11.459 0.399902 10.6061 0.399902C9.52055 0.399902 8.5901 0.399902 8.12487 0.639795C7.81472 0.799724 7.50457 1.19955 7.65964 1.19955C7.89225 1.19955 8.27994 1.27951 8.5901 1.59937C8.68137 1.71703 8.74578 1.88316 8.79124 2.05905C8.9427 2.64514 8.92549 3.26087 8.92022 3.86619C8.91354 4.63564 8.84017 5.64441 8.51256 5.83747C8.12487 6.07737 7.5821 5.59758 6.3415 3.59847C5.9355 2.91809 5.59594 2.16919 5.40977 1.73293C5.30407 1.48524 5.2627 1.16303 5.02335 1.03962C4.79088 0.879785 4.55841 0.879688 4.55813 0.879688C4.55812 0.879688 4.55812 0.879688 4.55811 0.879688H1.68923C1.68923 0.879688 1.68923 0.879688 1.68923 0.879688C1.68908 0.879688 1.22397 0.879713 1.06892 1.03962C0.833554 1.28235 1.13481 1.67274 1.27655 1.97971C1.88922 3.30661 3.77851 7.17809 5.87627 9.27594C7.22587 10.874 8.83326 11.3754 9.8052 11.5299Z" fill="white"/>
</svg>
